<?xml version="1.0" encoding="UTF-8" standalone="no"?>
<!-- Created with Inkscape (http://www.inkscape.org/) -->

<svg
   xmlns:dc="http://purl.org/dc/elements/1.1/"
   xmlns:cc="http://creativecommons.org/ns#"
   xmlns:rdf="http://www.w3.org/1999/02/22-rdf-syntax-ns#"
   xmlns:svg="http://www.w3.org/2000/svg"
   xmlns="http://www.w3.org/2000/svg"
   xmlns:sodipodi="http://sodipodi.sourceforge.net/DTD/sodipodi-0.dtd"
   xmlns:inkscape="http://www.inkscape.org/namespaces/inkscape"
   width="44.754871mm"
   height="44.903572mm"
   viewBox="0 0 158.58025 159.10714"
   id="svg4149"
   version="1.1"
   inkscape:version="0.91 r13725"
   sodipodi:docname="usersettings.svg">
  <defs
     id="defs4151" />
  <sodipodi:namedview
     id="base"
     pagecolor="#ffffff"
     bordercolor="#666666"
     borderopacity="1.0"
     inkscape:pageopacity="0.0"
     inkscape:pageshadow="2"
     inkscape:zoom="0.35"
     inkscape:cx="-365.70988"
     inkscape:cy="-114.73214"
     inkscape:document-units="px"
     inkscape:current-layer="layer1"
     showgrid="false"
     fit-margin-top="0"
     fit-margin-left="0"
     fit-margin-right="0"
     fit-margin-bottom="0"
     inkscape:window-width="1600"
     inkscape:window-height="871"
     inkscape:window-x="-4"
     inkscape:window-y="0"
     inkscape:window-maximized="1" />
  <metadata
     id="metadata4154">
    <rdf:RDF>
      <cc:Work
         rdf:about="">
        <dc:format>image/svg+xml</dc:format>
        <dc:type
           rdf:resource="http://purl.org/dc/dcmitype/StillImage" />
        <dc:title></dc:title>
      </cc:Work>
    </rdf:RDF>
  </metadata>
  <g
     inkscape:label="Layer 1"
     inkscape:groupmode="layer"
     id="layer1"
     transform="translate(-277.85273,-258.52292)">
    <path
       style="fill:#000000"
       d="m 381.2531,411.69256 c -4.10189,-8.2696 -8.00365,-9.96678 -16.16579,-7.0317 l -6.20899,2.23271 -3.32126,-3.32125 -3.32126,-3.32126 2.31814,-6.81984 c 2.21802,-6.52532 2.22312,-6.96485 0.11816,-10.17742 -1.20998,-1.84668 -4.68378,-4.45629 -7.71955,-5.79916 -5.19549,-2.29821 -5.51957,-2.73431 -5.51957,-7.42749 0,-4.67786 0.32935,-5.12711 5.33021,-7.27073 2.93161,-1.25663 6.12534,-3.24288 7.09719,-4.41387 2.24335,-2.70308 2.2464,-8.91306 0.007,-14.15728 -1.64619,-3.85493 -1.55979,-4.24794 1.63653,-7.44426 l 3.37446,-3.37446 6.20899,2.23272 c 8.16209,2.93506 12.06385,1.2379 16.16574,-7.03171 2.76596,-5.57631 3.24391,-5.9375 7.85692,-5.9375 4.62159,0 5.05248,0.32818 7.29263,5.55425 1.55184,3.6203 3.74969,6.26211 6.31216,7.58721 3.65856,1.89192 4.36172,1.8782 10.1345,-0.19766 4.48874,-1.61413 6.76815,-1.87425 8.24738,-0.94118 4.14077,2.61193 4.70279,5.06174 2.64064,11.51023 -2.73341,8.54759 -0.78389,13.1203 7.01983,16.46536 5.40656,2.31753 5.67582,2.67436 5.67582,7.52179 0,4.84799 -0.26884,5.20408 -5.68009,7.52361 -7.8942,3.38385 -10.02572,8.40203 -7.06551,16.63404 1.54722,4.30266 1.75306,6.40474 0.77846,7.9498 -2.70425,4.28714 -5.09982,4.79212 -11.61654,2.44875 -5.77277,-2.07586 -6.47593,-2.08957 -10.1345,-0.19766 -2.56246,1.32511 -4.76031,3.96691 -6.31215,7.58721 -2.24015,5.22607 -2.67105,5.55425 -7.29263,5.55425 -4.61301,0 -5.09096,-0.36119 -7.85692,-5.9375 z m 21.29214,-21.94797 c 6.49948,-4.30116 10.13774,-11.34047 10.13774,-19.61453 0,-13.73047 -9.82684,-23.75 -23.29327,-23.75 -15.64959,0 -26.62061,13.61598 -23.66506,29.37041 0.98293,5.23946 8.29926,13.94699 13.83333,16.46373 5.95584,2.70856 16.94684,1.52775 22.98726,-2.46961 z m -20.97467,-7.60891 c -8.23226,-4.5628 -8.5228,-18.68099 -0.49271,-23.94251 4.00327,-2.62304 12.06688,-2.6171 16.07916,0.0119 11.4317,7.49034 6.12127,25.74767 -7.45511,25.63075 -2.82916,-0.0244 -6.48826,-0.7894 -8.13134,-1.70008 z m -87.08146,-7.09097 c -7.33062,-2.13048 -9.33542,-5.86828 -13.16292,-24.5412 -5.65032,-27.56585 -4.73067,-34.6613 5.15509,-39.77342 6.85558,-3.54516 10.63984,-2.48765 17.89197,4.99993 14.02497,14.48031 27.59449,14.48031 41.61947,0 5.27855,-5.44992 7.44041,-6.84996 10.57737,-6.84996 8.23114,0 16.11289,7.91846 16.11289,16.18793 0,4.42884 -0.10627,4.45563 -7.09149,1.78796 -6.20127,-2.36829 -10.01904,-1.69401 -15.22873,2.68966 -5.41467,4.55615 -7.0696,10.38343 -4.61634,16.25491 2.82983,6.77274 2.50547,7.7109 -3.59969,10.4115 -6.82729,3.02004 -10.02645,8.42694 -9.09499,15.37147 l 0.64335,4.79657 -17.69355,-0.11273 c -9.73146,-0.062 -19.41205,-0.61218 -21.51243,-1.22262 z m 23.74423,-59.77449 c -6.3954,-2.90484 -12.20788,-11.64972 -15.00796,-22.57949 -4.84884,-18.92689 5.23195,-34.16781 22.59959,-34.16781 14.88488,0 24.15655,11.55862 22.80252,28.42699 -1.06821,13.30763 -7.96073,25.15912 -16.84186,28.9591 -5.24744,2.24524 -7.42911,2.1424 -13.55229,-0.63879 z"
       id="path4138"
       inkscape:connector-curvature="0" />
  </g>
</svg>
